<svg width="173" height="27" viewBox="0 0 173 27" fill="none" xmlns="http://www.w3.org/2000/svg">
<path d="M18.4795 26.4156H0V0H18.4795V5.37266H5.30979V10.5215H15.254V15.8941H5.30979V21.0429H18.4795V26.4156Z" fill="white"/>
<path d="M45.1714 0L36.4149 26.3096H29.9524L21.2075 0H27.0297L33.4573 19.8058C35.4019 19.8058 30.9887 19.8058 32.9333 19.8058L39.3493 0H45.1714Z" fill="white"/>
<path d="M71.0503 0L62.3403 26.3096H55.8661L47.0747 0H52.8968L59.3245 19.8058C61.2691 19.8058 56.8559 19.8058 58.8005 19.8058L65.2398 0H71.0503Z" fill="white"/>
<path d="M92.563 26.4156H74.0835V0H92.563V5.37266H79.3933V10.5215H89.3258V15.8941H79.3933V21.0429H92.563V26.4156Z" fill="white"/>
<path d="M116.939 26.4156H111.117L106.331 15.6938H101.557V26.4156H96.2358V0H109.475L109.941 0.0706929L110.64 0.200297C111.245 0.32419 111.832 0.526135 112.386 0.801187C113.023 1.11095 113.614 1.50737 114.145 1.9794C114.644 2.45633 115.082 2.99465 115.449 3.58178C115.754 4.06194 116.004 4.57584 116.194 5.11346L116.345 5.58474L116.497 6.07959C116.567 6.40949 116.602 6.65692 116.625 6.7983C116.632 6.90814 116.632 7.01836 116.625 7.1282V7.81157C116.621 8.46258 116.543 9.11095 116.392 9.74384C116.244 10.4568 115.993 11.1437 115.647 11.7822C115.271 12.4458 114.8 13.0493 114.25 13.573C113.624 14.1648 112.909 14.6502 112.13 15.0105H112.049C112.005 15.0293 111.965 15.0574 111.932 15.0929L116.939 26.4156ZM111.373 7.84692C111.359 7.4111 111.247 6.98419 111.047 6.59801C110.799 6.11643 110.385 5.74348 109.883 5.5494C109.754 5.4989 109.622 5.45949 109.487 5.43157H109.184H101.581V10.3801H109.126L109.429 10.3094L109.825 10.1798C110.319 9.99175 110.731 9.6328 110.989 9.16652C111.226 8.76678 111.358 8.31265 111.373 7.84692Z" fill="white"/>
<path d="M142.536 19.2482V26.553H140.884V19.4424C140.884 16.7823 139.571 15.4227 137.349 15.4227C134.821 15.4227 133.219 17.1117 133.219 19.9745V26.5868H131.567V19.4424C131.567 16.7823 130.254 15.4227 128.008 15.4227C125.53 15.4227 123.878 17.1117 123.878 19.9745V26.5868H122.226V13.9618H123.82V16.2587C124.291 15.4786 124.959 14.8435 125.755 14.4211C126.55 13.9988 127.443 13.805 128.338 13.8604C129.247 13.7892 130.155 14.0064 130.938 14.4825C131.722 14.9586 132.342 15.6704 132.715 16.5205C133.215 15.6666 133.932 14.9679 134.791 14.4992C135.649 14.0306 136.616 13.8098 137.588 13.8604C140.57 13.8689 142.536 15.6338 142.536 19.2482Z" fill="white"/>
<path d="M158.027 20.7644H147.713C147.748 21.3748 147.901 21.9722 148.164 22.5222C148.427 23.0721 148.795 23.5638 149.246 23.9688C149.697 24.3738 150.222 24.6841 150.792 24.8819C151.361 25.0797 151.964 25.1611 152.564 25.1213C153.275 25.1385 153.981 24.9971 154.632 24.707C155.283 24.4169 155.864 23.9852 156.333 23.4423L157.267 24.5336C156.671 25.2102 155.935 25.7446 155.112 26.0987C154.289 26.4528 153.399 26.6178 152.506 26.582C148.664 26.582 146.044 23.9208 146.044 20.202C146.044 16.4831 148.598 13.8472 152.068 13.8472C155.539 13.8472 158.043 16.4411 158.043 20.202C158.052 20.3867 158.027 20.5713 158.027 20.7644ZM147.722 19.5052H156.465C156.396 18.3746 155.906 17.3132 155.094 16.5372C154.281 15.7612 153.208 15.3292 152.093 15.3292C150.978 15.3292 149.905 15.7612 149.093 16.5372C148.28 17.3132 147.79 18.3746 147.722 19.5052Z" fill="white"/>
<path d="M173 8.90406V26.4411H171.398V24.0026C170.901 24.8216 170.197 25.4925 169.356 25.9461C168.516 26.3997 167.571 26.6196 166.618 26.583C165.79 26.606 164.967 26.4564 164.199 26.1437C163.431 25.8309 162.736 25.3618 162.157 24.7659C161.578 24.1699 161.128 23.4598 160.834 22.6803C160.541 21.9009 160.411 21.0688 160.452 20.2363C160.411 19.405 160.541 18.574 160.834 17.7958C161.128 17.0176 161.579 16.3091 162.158 15.715C162.737 15.121 163.433 14.6543 164.201 14.3444C164.968 14.0345 165.792 13.8882 166.618 13.9146C167.547 13.8834 168.468 14.0938 169.292 14.5253C170.116 14.9569 170.816 15.595 171.323 16.3782V8.8623L173 8.90406ZM171.34 20.2447C171.366 19.62 171.267 18.9965 171.048 18.4115C170.828 17.8266 170.494 17.2924 170.064 16.841C169.634 16.3896 169.118 16.0304 168.546 15.7851C167.975 15.5397 167.36 15.4132 166.739 15.4132C166.117 15.4132 165.502 15.5397 164.931 15.7851C164.36 16.0304 163.843 16.3896 163.413 16.841C162.984 17.2924 162.649 17.8266 162.43 18.4115C162.21 18.9965 162.111 19.62 162.137 20.2447C162.111 20.8693 162.21 21.4929 162.43 22.0778C162.649 22.6628 162.984 23.197 163.413 23.6484C163.843 24.0997 164.36 24.4589 164.931 24.7043C165.502 24.9497 166.117 25.0761 166.739 25.0761C167.36 25.0761 167.975 24.9497 168.546 24.7043C169.118 24.4589 169.634 24.0997 170.064 23.6484C170.494 23.197 170.828 22.6628 171.048 22.0778C171.267 21.4929 171.366 20.8693 171.34 20.2447Z" fill="white"/>
</svg>
