<svg width="173" height="27" viewBox="0 0 173 27" fill="none" xmlns="http://www.w3.org/2000/svg">
<path d="M18.4795 26.5799H0V0.164307H18.4795V5.53697H5.30979V10.6858H15.254V16.0584H5.30979V21.2072H18.4795V26.5799Z" fill="#454A4A"/>
<path d="M45.1717 0.164307L36.4152 26.4739H29.9526L21.2078 0.164307H27.0299L33.4575 19.9701C35.4021 19.9701 30.989 19.9701 32.9335 19.9701L39.3495 0.164307H45.1717Z" fill="#454A4A"/>
<path d="M71.05 0.164307L62.3401 26.4739H55.8659L47.0745 0.164307H52.8966L59.3242 19.9701C61.2688 19.9701 56.8557 19.9701 58.8002 19.9701L65.2395 0.164307H71.05Z" fill="#454A4A"/>
<path d="M92.5632 26.5799H74.0837V0.164307H92.5632V5.53697H79.3935V10.6858H89.3261V16.0584H79.3935V21.2072H92.5632V26.5799Z" fill="#454A4A"/>
<path d="M116.94 26.5799H111.117L106.332 15.8581H101.558V26.5799H96.2361V0.164307H109.476L109.941 0.235L110.64 0.364603C111.245 0.488497 111.832 0.690442 112.387 0.965493C113.023 1.27526 113.615 1.67167 114.145 2.14371C114.644 2.62064 115.082 3.15895 115.449 3.74608C115.754 4.22625 116.004 4.74014 116.194 5.27776L116.346 5.74905L116.497 6.2439C116.567 6.5738 116.602 6.82123 116.625 6.96261C116.633 7.07245 116.633 7.18267 116.625 7.29251V7.97588C116.621 8.62688 116.543 9.27525 116.392 9.90815C116.245 10.6211 115.994 11.308 115.647 11.9465C115.271 12.6101 114.801 13.2136 114.25 13.7374C113.625 14.3291 112.909 14.8145 112.131 15.1748H112.049C112.005 15.1936 111.965 15.2217 111.933 15.2572L116.94 26.5799ZM111.374 8.01122C111.359 7.5754 111.248 7.1485 111.048 6.76231C110.799 6.28074 110.385 5.90779 109.883 5.7137C109.755 5.66321 109.622 5.6238 109.487 5.59588H109.185H101.581V10.5444H109.126L109.429 10.4737L109.825 10.3441C110.319 10.1561 110.732 9.79711 110.989 9.33082C111.226 8.93109 111.358 8.47696 111.374 8.01122Z" fill="#454A4A"/>
<path d="M142.536 19.4128V26.7175H140.884V19.607C140.884 16.9469 139.571 15.5873 137.349 15.5873C134.821 15.5873 133.219 17.2762 133.219 20.139V26.7513H131.567V19.607C131.567 16.9469 130.254 15.5873 128.008 15.5873C125.53 15.5873 123.878 17.2762 123.878 20.139V26.7513H122.226V14.1263H123.82V16.4233C124.291 15.6431 124.959 15.008 125.755 14.5857C126.55 14.1633 127.443 13.9695 128.338 14.025C129.247 13.9537 130.155 14.171 130.938 14.6471C131.722 15.1232 132.342 15.8349 132.715 16.6851C133.215 15.8312 133.932 15.1324 134.791 14.6638C135.649 14.1951 136.616 13.9743 137.588 14.025C140.57 14.0334 142.536 15.7984 142.536 19.4128Z" fill="#019393"/>
<path d="M158.027 20.929H147.713C147.748 21.5394 147.901 22.1368 148.164 22.6867C148.427 23.2367 148.795 23.7283 149.246 24.1333C149.697 24.5383 150.222 24.8486 150.792 25.0465C151.361 25.2443 151.964 25.3256 152.564 25.2858C153.275 25.3031 153.981 25.1617 154.632 24.8716C155.283 24.5815 155.864 24.1497 156.333 23.6069L157.267 24.6982C156.671 25.3747 155.935 25.9092 155.112 26.2632C154.289 26.6173 153.399 26.7824 152.506 26.7465C148.664 26.7465 146.044 24.0854 146.044 20.3665C146.044 16.6477 148.598 14.0117 152.068 14.0117C155.539 14.0117 158.043 16.6057 158.043 20.3665C158.052 20.5512 158.027 20.7359 158.027 20.929ZM147.722 19.6698H156.465C156.396 18.5392 155.906 17.4777 155.094 16.7017C154.281 15.9258 153.208 15.4937 152.093 15.4937C150.978 15.4937 149.905 15.9258 149.093 16.7017C148.28 17.4777 147.79 18.5392 147.722 19.6698Z" fill="#019393"/>
<path d="M173 9.06837V26.6054H171.398V24.1669C170.902 24.9859 170.197 25.6568 169.357 26.1104C168.516 26.564 167.571 26.7839 166.618 26.7474C165.791 26.7703 164.967 26.6207 164.199 26.308C163.431 25.9952 162.736 25.5262 162.157 24.9302C161.578 24.3342 161.128 23.6241 160.834 22.8446C160.541 22.0652 160.411 21.2331 160.453 20.4006C160.411 19.5693 160.541 18.7383 160.835 17.9601C161.128 17.1819 161.579 16.4734 162.158 15.8793C162.738 15.2853 163.433 14.8186 164.201 14.5087C164.969 14.1988 165.792 14.0525 166.618 14.0789C167.547 14.0477 168.468 14.2581 169.292 14.6896C170.116 15.1212 170.816 15.7593 171.324 16.5425V9.02661L173 9.06837ZM171.34 20.409C171.367 19.7843 171.267 19.1608 171.048 18.5758C170.828 17.9909 170.494 17.4567 170.064 17.0053C169.634 16.5539 169.118 16.1947 168.546 15.9494C167.975 15.704 167.36 15.5775 166.739 15.5775C166.118 15.5775 165.503 15.704 164.931 15.9494C164.36 16.1947 163.844 16.5539 163.414 17.0053C162.984 17.4567 162.649 17.9909 162.43 18.5758C162.21 19.1608 162.111 19.7843 162.137 20.409C162.111 21.0336 162.21 21.6572 162.43 22.2421C162.649 22.8271 162.984 23.3613 163.414 23.8127C163.844 24.264 164.36 24.6232 164.931 24.8686C165.503 25.114 166.118 25.2405 166.739 25.2405C167.36 25.2405 167.975 25.114 168.546 24.8686C169.118 24.6232 169.634 24.264 170.064 23.8127C170.494 23.3613 170.828 22.8271 171.048 22.2421C171.267 21.6572 171.367 21.0336 171.34 20.409Z" fill="#019393"/>
</svg>
